<?xml version="1.0" standalone="no"?>
<!DOCTYPE svg PUBLIC "-//W3C//DTD SVG 20010904//EN"
 "http://www.w3.org/TR/2001/REC-SVG-20010904/DTD/svg10.dtd">
<svg version="1.0" xmlns="http://www.w3.org/2000/svg"
 width="579.000000pt" height="579.000000pt" viewBox="0 0 579.000000 579.000000"
 preserveAspectRatio="xMidYMid meet">
<metadata>
Created by potrace 1.11, written by Peter Selinger 2001-2013
</metadata>
<g transform="translate(0.000000,579.000000) scale(0.100000,-0.100000)"
fill="#000000" stroke="none">
<path d="M3140 5636 c-189 -43 -358 -218 -399 -413 -8 -34 -16 -61 -20 -61 -3
1 -30 -1 -59 -5 -108 -16 -202 -90 -259 -205 -31 -62 -37 -84 -39 -152 -4 -93
14 -163 58 -233 103 -162 296 -216 466 -130 49 25 116 86 139 127 9 17 13 17
79 -4 46 -14 94 -21 144 -21 92 1 117 5 191 36 69 28 109 54 165 107 l41 39
64 -35 c69 -37 139 -54 210 -50 52 3 159 34 159 46 0 4 6 8 14 8 21 0 100 79
128 130 116 204 3 453 -233 515 -58 16 -161 11 -216 -9 -38 -13 -43 -13 -43 0
0 25 -70 126 -125 179 -121 118 -302 169 -465 131z"/>
<path d="M2308 4182 c-15 -3 -18 -15 -18 -83 l0 -79 28 -1 c15 -1 33 -1 40 0
12 2 14 -12 14 -104 0 -25 -1 -58 -1 -75 l-1 -29 -102 2 c-75 1 -103 -2 -104
-11 -1 -7 -2 -15 -3 -19 0 -5 -124 -8 -274 -8 -149 0 -310 -3 -357 -7 -85 -8
-209 -26 -219 -33 -3 -1 -23 -6 -44 -9 -63 -10 -202 -61 -273 -101 -134 -75
-255 -225 -311 -382 -29 -83 -28 -83 -68 -79 -38 3 -37 7 -39 -86 l-1 -53 -40
-7 c-22 -4 -56 -10 -75 -14 -65 -11 -196 -60 -261 -97 -77 -43 -147 -109 -177
-169 l-22 -43 2 -1275 3 -1275 760 0 760 0 2 1275 2 1274 -26 47 c-73 134
-249 232 -493 273 l-75 12 -3 70 -3 71 -44 -2 c-30 -2 -45 2 -45 10 0 36 79
165 134 221 95 95 274 168 462 189 33 4 73 9 89 12 56 9 635 11 636 2 1 -5 2
-19 2 -31 1 -22 6 -23 106 -28 l104 -5 -1 -195 c0 -107 -1 -207 -1 -222 -1
-26 -4 -28 -39 -28 l-38 0 0 -80 c-1 -83 2 -88 49 -86 21 1 27 -3 28 -19 0
-31 0 -186 0 -222 -1 -29 -4 -32 -31 -31 -17 1 -34 -2 -38 -6 -4 -4 -7 -41 -7
-82 l-1 -74 38 0 c43 0 39 13 39 -140 0 -161 4 -148 -36 -145 -20 1 -36 -3
-36 -9 -1 -6 -2 -44 -3 -83 l-1 -73 37 0 c32 0 38 -3 39 -22 1 -23 0 -197 -1
-230 0 -12 -10 -18 -37 -20 l-38 -3 0 -80 0 -80 38 1 c42 0 39 9 39 -121 -1
-167 2 -154 -37 -151 -19 2 -36 1 -36 -3 -1 -3 -2 -41 -3 -83 l-2 -78 38 0
c44 0 40 14 40 -163 0 -60 -3 -111 -6 -114 -3 -3 -20 -6 -38 -7 l-33 -1 -1
-70 c0 -39 2 -76 4 -82 2 -7 20 -13 41 -13 l36 0 -3 -70 -4 -70 -131 0 -132 0
2 -202 c1 -112 2 -210 2 -218 1 -13 81 -15 666 -13 366 0 671 3 678 6 9 3 12
55 11 208 -1 112 -2 207 -3 212 0 4 -62 7 -136 7 -74 0 -135 3 -136 8 -1 4 -2
35 -3 69 l-3 62 41 3 41 3 0 80 0 80 -33 2 c-19 1 -37 4 -40 8 -4 4 -7 66 -7
138 l0 132 40 5 40 5 0 80 0 80 -37 -1 c-21 0 -39 2 -39 5 -5 19 -4 261 1 262
3 1 19 3 35 4 17 2 33 3 36 4 4 1 6 37 6 80 l1 80 -42 3 -41 3 0 132 -1 132
41 3 40 3 2 81 2 81 -39 -3 c-23 -2 -40 2 -42 9 -2 7 -4 70 -4 142 1 96 4 130
14 131 6 1 25 2 41 3 l28 1 0 80 c1 86 4 82 -57 82 l-25 1 0 133 c0 127 1 134
20 135 11 1 25 2 30 4 6 1 15 3 21 3 7 1 11 29 10 80 l-1 77 -40 5 -40 5 0
228 c0 220 0 227 20 228 11 0 57 1 103 1 80 -1 82 0 82 24 0 23 2 24 83 25
395 7 546 -2 722 -42 386 -88 511 -335 519 -1032 1 -81 -2 -151 -7 -154 -5 -3
-38 -5 -73 -5 l-64 0 0 -109 c0 -95 -2 -110 -17 -116 -228 -78 -411 -247 -498
-461 -70 -173 -71 -387 -3 -562 60 -155 184 -305 316 -383 l33 -20 -1 -126
c-1 -69 -1 -189 -1 -267 l1 -141 355 1 355 0 0 183 0 183 161 2 161 3 18 48
c10 27 30 64 45 83 14 19 28 44 31 57 3 12 9 42 14 67 5 25 12 56 15 70 4 14
7 31 7 38 1 6 7 12 15 12 8 0 13 12 13 35 l0 35 88 1 c48 1 93 1 100 0 14 -2
12 2 -41 119 -13 30 -46 100 -72 155 -58 122 -75 169 -75 205 0 35 -36 176
-57 220 -39 85 -99 174 -162 238 -73 74 -204 161 -281 187 l-47 16 -1 104 c0
58 -3 109 -6 114 -3 5 -35 9 -71 9 -37 0 -69 3 -72 6 -4 3 -7 79 -8 168 -4
272 -23 447 -64 611 -68 262 -208 434 -431 523 -72 30 -195 62 -265 70 -27 4
-52 8 -55 9 -15 9 -271 19 -462 18 l-218 -1 0 23 c0 29 -8 32 -112 30 -49 -1
-89 1 -89 4 -4 18 -5 168 -1 179 2 6 19 12 38 12 37 0 35 -6 36 98 0 29 -3 56
-7 60 -7 7 -913 11 -947 4z"/>
</g>
</svg>
