<?xml version="1.0" standalone="no"?>
<!DOCTYPE svg PUBLIC "-//W3C//DTD SVG 20010904//EN"
 "http://www.w3.org/TR/2001/REC-SVG-20010904/DTD/svg10.dtd">
<svg version="1.0" xmlns="http://www.w3.org/2000/svg"
 width="489.000000pt" height="489.000000pt" viewBox="0 0 489.000000 489.000000"
 preserveAspectRatio="xMidYMid meet">
<metadata>
Created by potrace 1.11, written by Peter Selinger 2001-2013
</metadata>
<g transform="translate(0.000000,489.000000) scale(0.100000,-0.100000)"
fill="#000000" stroke="none">
<path d="M2010 4880 c-30 -4 -80 -11 -110 -14 -104 -14 -372 -86 -394 -107 -6
-5 -15 -9 -22 -9 -22 0 -203 -89 -295 -145 -490 -299 -828 -803 -909 -1360
-16 -107 -21 -370 -9 -475 20 -170 66 -355 127 -507 105 -261 296 -532 499
-709 119 -104 140 -120 243 -186 l95 -62 -1 -640 c0 -353 2 -647 4 -653 3 -10
186 -13 868 -13 l864 0 0 53 c1 28 2 230 3 447 l2 395 387 0 388 0 26 75 c25
69 66 160 99 218 7 13 31 43 52 65 38 40 56 89 80 219 2 13 -10 21 -49 33 -28
8 -58 15 -66 15 -20 0 -9 51 19 89 18 24 70 54 130 74 11 3 19 22 23 51 6 39
3 55 -24 112 -18 36 -30 67 -28 68 1 2 35 20 75 40 67 35 78 38 180 42 222 8
357 14 359 17 2 2 -139 313 -211 465 -19 40 -35 74 -35 77 0 2 -22 50 -48 107
-169 361 -180 388 -187 479 -8 113 -46 300 -85 419 -94 286 -253 542 -472 759
-51 52 -120 114 -153 139 -33 25 -62 49 -65 52 -16 21 -183 120 -293 175 -179
89 -408 162 -567 181 -30 3 -59 9 -63 11 -14 9 -377 10 -437 3z"/>
</g>
</svg>
