<?xml version="1.0" standalone="no"?>
<!DOCTYPE svg PUBLIC "-//W3C//DTD SVG 20010904//EN"
 "http://www.w3.org/TR/2001/REC-SVG-20010904/DTD/svg10.dtd">
<svg version="1.0" xmlns="http://www.w3.org/2000/svg"
 width="341.000000pt" height="341.000000pt" viewBox="0 0 341.000000 341.000000"
 preserveAspectRatio="xMidYMid meet">
<metadata>
Created by potrace 1.11, written by Peter Selinger 2001-2013
</metadata>
<g transform="translate(0.000000,341.000000) scale(0.100000,-0.100000)"
fill="#000000" stroke="none">
<path d="M547 3402 c-3 -6 -2 -46 2 -87 1 -7 73 -11 204 -11 264 -1 369 -9
507 -38 59 -13 139 -49 172 -79 40 -35 88 -122 91 -163 l2 -26 -147 0 -148 -1
0 -151 0 -152 -61 -18 c-33 -9 -104 -39 -157 -66 -299 -150 -505 -402 -585
-715 -22 -86 -29 -302 -13 -400 20 -126 88 -290 168 -408 81 -120 263 -286
366 -335 l32 -16 0 -368 0 -368 518 0 517 0 -1 250 -2 250 234 0 c159 0 234 3
234 11 0 23 69 156 95 184 15 16 34 52 41 80 17 63 17 65 0 65 -8 0 -26 4 -40
10 -24 9 -25 12 -14 36 7 15 28 32 51 41 52 21 63 52 37 103 l-20 40 47 24
c49 24 49 24 291 30 17 0 32 1 32 2 0 1 -28 58 -61 126 -163 327 -222 455
-225 483 -24 258 -129 481 -311 661 -119 119 -256 206 -420 268 l-72 27 0 127
c1 70 0 139 0 154 l-1 28 -117 -1 c-170 -1 -163 -2 -163 24 0 33 -35 124 -66
170 -66 100 -180 160 -352 187 -37 6 -78 13 -92 16 -40 8 -569 14 -573 6z"/>
</g>
</svg>
